<svg width="88" height="127" viewBox="0 0 88 127" fill="none" xmlns="http://www.w3.org/2000/svg">
<g filter="url(#filter0_d)">
<path d="M31.0191 115.352V111.652C33.1525 111.518 34.7858 111.352 35.9191 111.152C38.6525 110.552 40.0191 109.185 40.0191 107.052C40.0191 83.5183 39.7858 64.2517 39.3191 49.2517C39.2525 47.7183 38.7191 46.7183 37.7191 46.2517C36.7858 45.785 35.0191 45.485 32.4191 45.3517L31.0191 45.2517V41.5517H60.0191V45.2517L58.6191 45.3517C56.7525 45.485 55.3191 45.6183 54.3191 45.7517C51.7191 46.2183 50.4191 47.385 50.4191 49.2517C49.9525 62.585 49.7191 81.8517 49.7191 107.052C49.7191 109.652 52.9858 110.952 59.5191 110.952H61.6191C68.7525 110.952 72.7858 110.552 73.7191 109.752C75.3858 108.285 77.0858 104.218 78.8191 97.5517L80.2191 92.1517H83.9191C83.7191 93.885 83.5191 97.9183 83.3191 104.252C83.1191 110.585 83.0191 114.285 83.0191 115.352H31.0191Z" fill="white"/>
<path d="M23.8684 54L23.6684 82.7C23.6684 84.7667 25.0684 86.1333 27.8684 86.8C29.0017 87 30.6017 87.1667 32.6684 87.3V91H4.96836V87.3C6.96836 87.1667 8.50169 87 9.56836 86.8C10.7017 86.6 11.7017 86.1667 12.5684 85.5C13.5017 84.8333 13.9684 83.9 13.9684 82.7C13.9684 59.6333 13.735 40.3667 13.2684 24.9C13.2017 23.4333 12.6684 22.4667 11.6684 22C10.735 21.4667 8.96836 21.1333 6.36836 21L4.96836 20.9V17.2H32.6684V20.9L31.2684 21C28.6684 21.1333 26.8684 21.4667 25.8684 22C24.935 22.4667 24.435 23.4333 24.3684 24.9C24.1684 36.7 24.035 44.9667 23.9684 49.7H65.0684C65.0017 41.6333 64.835 33.3667 64.5684 24.9C64.5017 23.4333 63.9684 22.4667 62.9684 22C62.035 21.4667 60.2684 21.1333 57.6684 21L56.2684 20.9V17.2H83.9684V20.9L82.5684 21C79.9684 21.1333 78.1684 21.4667 77.1684 22C76.235 22.4667 75.735 23.4333 75.6684 24.9C75.2017 38.2333 74.9684 57.5 74.9684 82.7C74.9684 84.7667 76.4017 86.1333 79.2684 86.8C80.335 87 81.9017 87.1667 83.9684 87.3V91H56.2684V87.3C58.2684 87.1667 59.8017 87 60.8684 86.8C62.0017 86.6 63.0017 86.1667 63.8684 85.5C64.8017 84.8333 65.2684 83.9 65.2684 82.7C65.2684 73.5 65.2017 63.9333 65.0684 54H23.8684Z" fill="white"/>
</g>
<defs>
<filter id="filter0_d" x="0.968262" y="17.2" width="87" height="106.152" filterUnits="userSpaceOnUse" color-interpolation-filters="sRGB">
<feFlood flood-opacity="0" result="BackgroundImageFix"/>
<feColorMatrix in="SourceAlpha" type="matrix" values="0 0 0 0 0 0 0 0 0 0 0 0 0 0 0 0 0 0 127 0"/>
<feOffset dy="4"/>
<feGaussianBlur stdDeviation="2"/>
<feColorMatrix type="matrix" values="0 0 0 0 0 0 0 0 0 0 0 0 0 0 0 0 0 0 0.5 0"/>
<feBlend mode="normal" in2="BackgroundImageFix" result="effect1_dropShadow"/>
<feBlend mode="normal" in="SourceGraphic" in2="effect1_dropShadow" result="shape"/>
</filter>
</defs>
</svg>
