<svg width="91" height="127" viewBox="0 0 91 127" fill="none" xmlns="http://www.w3.org/2000/svg">
<g filter="url(#filter0_d)">
<path d="M32.0191 115.352V111.652C34.1525 111.518 35.7858 111.352 36.9191 111.152C39.6525 110.552 41.0191 109.185 41.0191 107.052C41.0191 83.5183 40.7858 64.2517 40.3191 49.2517C40.2525 47.7183 39.7191 46.7183 38.7191 46.2517C37.7858 45.785 36.0191 45.485 33.4191 45.3517L32.0191 45.2517V41.5517H61.0191V45.2517L59.6191 45.3517C57.7525 45.485 56.3191 45.6183 55.3191 45.7517C52.7191 46.2183 51.4191 47.385 51.4191 49.2517C50.9525 62.585 50.7191 81.8517 50.7191 107.052C50.7191 109.652 53.9858 110.952 60.5191 110.952H62.6191C69.7525 110.952 73.7858 110.552 74.7191 109.752C76.3858 108.285 78.0858 104.218 79.8191 97.5517L81.2191 92.1517H84.9191C84.7191 93.885 84.5191 97.9183 84.3191 104.252C84.1191 110.585 84.0191 114.285 84.0191 115.352H32.0191Z" fill="white"/>
<path d="M32.0191 115.352H31.0191V116.352H32.0191V115.352ZM32.0191 111.652L31.9568 110.654L31.0191 110.712V111.652H32.0191ZM36.9191 111.152L37.0929 112.136L37.1133 112.133L37.1335 112.128L36.9191 111.152ZM40.3191 49.2517L41.3187 49.2206L41.3182 49.2082L40.3191 49.2517ZM38.7191 46.2517L38.2719 47.1461L38.284 47.1521L38.2963 47.1579L38.7191 46.2517ZM33.4191 45.3517L33.3479 46.3491L33.3579 46.3499L33.3679 46.3504L33.4191 45.3517ZM32.0191 45.2517H31.0191V46.1828L31.9479 46.2491L32.0191 45.2517ZM32.0191 41.5517V40.5517H31.0191V41.5517H32.0191ZM61.0191 41.5517H62.0191V40.5517H61.0191V41.5517ZM61.0191 45.2517L61.0904 46.2491L62.0191 46.1828V45.2517H61.0191ZM59.6191 45.3517L59.5479 44.3542L59.5479 44.3542L59.6191 45.3517ZM55.3191 45.7517L55.187 44.7605L55.1647 44.7634L55.1425 44.7674L55.3191 45.7517ZM51.4191 49.2517L52.4185 49.2867L52.4191 49.2692V49.2517H51.4191ZM74.7191 109.752L75.37 110.511L75.3798 110.502L74.7191 109.752ZM79.8191 97.5517L80.787 97.8033L80.7871 97.8026L79.8191 97.5517ZM81.2191 92.1517V91.1517H80.4453L80.2511 91.9007L81.2191 92.1517ZM84.9191 92.1517L85.9126 92.2663L86.0412 91.1517H84.9191V92.1517ZM84.3191 104.252L85.3186 104.283L85.3186 104.283L84.3191 104.252ZM84.0191 115.352V116.352H85.0191V115.352H84.0191ZM33.0191 115.352V111.652H31.0191V115.352H33.0191ZM32.0815 112.65C34.2264 112.516 35.9039 112.346 37.0929 112.136L36.7454 110.167C35.6677 110.357 34.0786 110.521 31.9568 110.654L32.0815 112.65ZM37.1335 112.128C38.6077 111.805 39.8351 111.25 40.7012 110.384C41.5925 109.493 42.0191 108.353 42.0191 107.052H40.0191C40.0191 107.883 39.7625 108.494 39.287 108.97C38.7865 109.47 37.964 109.899 36.7047 110.175L37.1335 112.128ZM42.0191 107.052C42.0191 83.5131 41.7858 64.235 41.3187 49.2206L39.3196 49.2828C39.7858 64.2683 40.0191 83.5236 40.0191 107.052H42.0191ZM41.3182 49.2082C41.2426 47.4687 40.608 46.0296 39.142 45.3455L38.2963 47.1579C38.8303 47.4071 39.2624 47.968 39.3201 49.2951L41.3182 49.2082ZM39.1664 45.3573C38.0242 44.7862 36.061 44.4858 33.4704 44.353L33.3679 46.3504C35.9773 46.4842 37.5474 46.7838 38.2719 47.1461L39.1664 45.3573ZM33.4904 44.3542L32.0904 44.2542L31.9479 46.2491L33.3479 46.3491L33.4904 44.3542ZM33.0191 45.2517V41.5517H31.0191V45.2517H33.0191ZM32.0191 42.5517H61.0191V40.5517H32.0191V42.5517ZM60.0191 41.5517V45.2517H62.0191V41.5517H60.0191ZM60.9479 44.2542L59.5479 44.3542L59.6904 46.3491L61.0904 46.2491L60.9479 44.2542ZM59.5479 44.3542C57.6749 44.488 56.2175 44.623 55.187 44.7605L55.4513 46.7429C56.4208 46.6137 57.8301 46.482 59.6904 46.3491L59.5479 44.3542ZM55.1425 44.7674C53.7466 45.018 52.5681 45.4769 51.7262 46.2324C50.8491 47.0196 50.4191 48.0563 50.4191 49.2517H52.4191C52.4191 48.5804 52.6392 48.1004 53.0621 47.7209C53.5202 47.3098 54.2917 46.9521 55.4958 46.736L55.1425 44.7674ZM50.4198 49.2167C49.9525 62.5678 49.7191 81.8483 49.7191 107.052H51.7191C51.7191 81.8551 51.9525 62.6023 52.4185 49.2867L50.4198 49.2167ZM49.7191 107.052C49.7191 107.931 50.0023 108.728 50.565 109.4C51.1127 110.054 51.8846 110.542 52.7994 110.906C54.612 111.627 57.2156 111.952 60.5191 111.952V109.952C57.2894 109.952 54.993 109.626 53.5389 109.048C52.8204 108.762 52.3672 108.437 52.0982 108.116C51.8443 107.813 51.7191 107.473 51.7191 107.052H49.7191ZM60.5191 111.952H62.6191V109.952H60.5191V111.952ZM62.6191 111.952C66.1981 111.952 69.0278 111.852 71.0928 111.647C72.1238 111.545 72.989 111.414 73.6727 111.249C74.3158 111.093 74.9447 110.875 75.3699 110.511L74.0684 108.992C74.0685 108.992 74.0533 109.005 74.014 109.027C73.9753 109.049 73.9201 109.077 73.8447 109.108C73.6919 109.17 73.4814 109.237 73.203 109.305C72.6451 109.439 71.8812 109.559 70.8955 109.657C68.9272 109.852 66.1735 109.952 62.6191 109.952V111.952ZM75.3798 110.502C76.3921 109.612 77.3049 108.049 78.1668 105.987C79.0421 103.893 79.9142 101.16 80.787 97.8033L78.8513 97.3001C77.9907 100.61 77.1462 103.243 76.3215 105.216C75.4834 107.221 74.7129 108.425 74.0585 109.001L75.3798 110.502ZM80.7871 97.8026L82.1871 92.4026L80.2511 91.9007L78.8511 97.3007L80.7871 97.8026ZM81.2191 93.1517H84.9191V91.1517H81.2191V93.1517ZM83.9257 92.0371C83.72 93.8205 83.5192 97.8996 83.3196 104.22L85.3186 104.283C85.519 97.9371 85.7183 93.9496 85.9126 92.2663L83.9257 92.0371ZM83.3196 104.22C83.12 110.544 83.0191 114.265 83.0191 115.352H85.0191C85.0191 114.305 85.1183 110.626 85.3186 104.283L83.3196 104.22ZM84.0191 114.352H32.0191V116.352H84.0191V114.352Z" fill="#3C3F42"/>
<path d="M24.8684 54L24.6684 82.7C24.6684 84.7667 26.0684 86.1333 28.8684 86.8C30.0017 87 31.6017 87.1667 33.6684 87.3V91H5.96836V87.3C7.96836 87.1667 9.50169 87 10.5684 86.8C11.7017 86.6 12.7017 86.1667 13.5684 85.5C14.5017 84.8333 14.9684 83.9 14.9684 82.7C14.9684 59.6333 14.735 40.3667 14.2684 24.9C14.2017 23.4333 13.6684 22.4667 12.6684 22C11.735 21.4667 9.96836 21.1333 7.36836 21L5.96836 20.9V17.2H33.6684V20.9L32.2684 21C29.6684 21.1333 27.8684 21.4667 26.8684 22C25.935 22.4667 25.435 23.4333 25.3684 24.9C25.1684 36.7 25.035 44.9667 24.9684 49.7H66.0684C66.0017 41.6333 65.835 33.3667 65.5684 24.9C65.5017 23.4333 64.9684 22.4667 63.9684 22C63.035 21.4667 61.2684 21.1333 58.6684 21L57.2684 20.9V17.2H84.9684V20.9L83.5684 21C80.9684 21.1333 79.1684 21.4667 78.1684 22C77.235 22.4667 76.735 23.4333 76.6684 24.9C76.2017 38.2333 75.9684 57.5 75.9684 82.7C75.9684 84.7667 77.4017 86.1333 80.2684 86.8C81.335 87 82.9017 87.1667 84.9684 87.3V91H57.2684V87.3C59.2684 87.1667 60.8017 87 61.8684 86.8C63.0017 86.6 64.0017 86.1667 64.8684 85.5C65.8017 84.8333 66.2684 83.9 66.2684 82.7C66.2684 73.5 66.2017 63.9333 66.0684 54H24.8684Z" fill="white"/>
<path d="M24.8684 54V53H23.8753L23.8684 53.993L24.8684 54ZM24.6684 82.7L23.6684 82.693V82.7H24.6684ZM28.8684 86.8L28.6367 87.7728L28.6655 87.7796L28.6946 87.7848L28.8684 86.8ZM33.6684 87.3H34.6684V86.3624L33.7327 86.3021L33.6684 87.3ZM33.6684 91V92H34.6684V91H33.6684ZM5.96836 91H4.96836V92H5.96836V91ZM5.96836 87.3L5.90184 86.3022L4.96836 86.3644V87.3H5.96836ZM10.5684 86.8L10.3946 85.8152L10.3841 85.8171L10.5684 86.8ZM13.5684 85.5L12.9871 84.6863L12.9727 84.6966L12.9586 84.7074L13.5684 85.5ZM14.2684 24.9L15.2679 24.8698L15.2677 24.8622L15.2673 24.8546L14.2684 24.9ZM12.6684 22L12.1722 22.8682L12.2081 22.8887L12.2455 22.9062L12.6684 22ZM7.36836 21L7.29711 21.9975L7.30712 21.9982L7.31714 21.9987L7.36836 21ZM5.96836 20.9H4.96836V21.8311L5.89711 21.8975L5.96836 20.9ZM5.96836 17.2V16.2H4.96836V17.2H5.96836ZM33.6684 17.2H34.6684V16.2H33.6684V17.2ZM33.6684 20.9L33.7396 21.8975L34.6684 21.8311V20.9H33.6684ZM32.2684 21L32.3196 21.9987L32.3296 21.9982L32.3396 21.9975L32.2684 21ZM26.8684 22L27.3156 22.8944L27.3273 22.8885L27.3389 22.8823L26.8684 22ZM25.3684 24.9L24.3694 24.8546L24.3687 24.8688L24.3685 24.8831L25.3684 24.9ZM24.9684 49.7L23.9685 49.6859L23.9542 50.7H24.9684V49.7ZM66.0684 49.7V50.7H67.0767L67.0683 49.6917L66.0684 49.7ZM65.5684 24.9L66.568 24.8685L66.5673 24.8546L65.5684 24.9ZM63.9684 22L63.4722 22.8682L63.5081 22.8887L63.5455 22.9062L63.9684 22ZM58.6684 21L58.5971 21.9975L58.6071 21.9982L58.6171 21.9987L58.6684 21ZM57.2684 20.9H56.2684V21.8311L57.1971 21.8975L57.2684 20.9ZM57.2684 17.2V16.2H56.2684V17.2H57.2684ZM84.9684 17.2H85.9684V16.2H84.9684V17.2ZM84.9684 20.9L85.0396 21.8975L85.9684 21.8311V20.9H84.9684ZM83.5684 21L83.6196 21.9987L83.6296 21.9982L83.6396 21.9975L83.5684 21ZM78.1684 22L78.6156 22.8944L78.6273 22.8885L78.639 22.8823L78.1684 22ZM76.6684 24.9L75.6693 24.8546L75.669 24.865L76.6684 24.9ZM80.2684 86.8L80.0418 87.774L80.0629 87.7789L80.0841 87.7829L80.2684 86.8ZM84.9684 87.3H85.9684V86.3624L85.0327 86.3021L84.9684 87.3ZM84.9684 91V92H85.9684V91H84.9684ZM57.2684 91H56.2684V92H57.2684V91ZM57.2684 87.3L57.2018 86.3022L56.2684 86.3644V87.3H57.2684ZM61.8684 86.8L61.6946 85.8152L61.6841 85.8171L61.8684 86.8ZM64.8684 85.5L64.2871 84.6863L64.2727 84.6966L64.2587 84.7074L64.8684 85.5ZM66.0684 54L67.0683 53.9866L67.055 53H66.0684V54ZM23.8684 53.993L23.6684 82.693L25.6683 82.707L25.8683 54.007L23.8684 53.993ZM23.6684 82.7C23.6684 83.9858 24.1153 85.1076 25.0198 85.9906C25.8965 86.8464 27.1383 87.416 28.6367 87.7728L29.1 85.8272C27.7984 85.5173 26.9402 85.0703 26.4169 84.5594C25.9215 84.0758 25.6684 83.4809 25.6684 82.7H23.6684ZM28.6946 87.7848C29.8819 87.9943 31.5246 88.1638 33.604 88.2979L33.7327 86.3021C31.6788 86.1696 30.1215 86.0057 29.0421 85.8152L28.6946 87.7848ZM32.6684 87.3V91H34.6684V87.3H32.6684ZM33.6684 90H5.96836V92H33.6684V90ZM6.96836 91V87.3H4.96836V91H6.96836ZM6.03488 88.2978C8.04732 88.1636 9.62729 87.9939 10.7526 87.7829L10.3841 85.8171C9.3761 86.0061 7.8894 86.1697 5.90184 86.3022L6.03488 88.2978ZM10.7421 87.7848C12.0256 87.5583 13.177 87.0627 14.1781 86.2926L12.9586 84.7074C12.2264 85.2706 11.3778 85.6417 10.3946 85.8152L10.7421 87.7848ZM14.1496 86.3137C15.3598 85.4493 15.9684 84.2053 15.9684 82.7H13.9684C13.9684 83.5947 13.6436 84.2173 12.9871 84.6863L14.1496 86.3137ZM15.9684 82.7C15.9684 59.6276 15.735 40.3501 15.2679 24.8698L13.2688 24.9302C13.7351 40.3832 13.9684 59.639 13.9684 82.7H15.9684ZM15.2673 24.8546C15.1902 23.1587 14.5407 21.7702 13.0912 21.0938L12.2455 22.9062C12.796 23.1631 13.2131 23.7079 13.2694 24.9454L15.2673 24.8546ZM13.1645 21.1317C12.558 20.7852 11.7582 20.5427 10.8288 20.3673C9.88633 20.1895 8.74656 20.0694 7.41958 20.0013L7.31714 21.9987C8.59016 22.064 9.63372 22.1771 10.458 22.3327C11.2952 22.4906 11.8454 22.6815 12.1722 22.8682L13.1645 21.1317ZM7.43961 20.0025L6.03961 19.9025L5.89711 21.8975L7.29711 21.9975L7.43961 20.0025ZM6.96836 20.9V17.2H4.96836V20.9H6.96836ZM5.96836 18.2H33.6684V16.2H5.96836V18.2ZM32.6684 17.2V20.9H34.6684V17.2H32.6684ZM33.5971 19.9025L32.1971 20.0025L32.3396 21.9975L33.7396 21.8975L33.5971 19.9025ZM32.2171 20.0013C29.6131 20.1348 27.612 20.4701 26.3978 21.1176L27.3389 22.8823C28.1248 22.4633 29.7236 22.1318 32.3196 21.9987L32.2171 20.0013ZM26.4211 21.1056C25.0385 21.7969 24.445 23.1913 24.3694 24.8546L26.3673 24.9454C26.4251 23.6754 26.8315 23.1365 27.3156 22.8944L26.4211 21.1056ZM24.3685 24.8831C24.1685 36.683 24.0351 44.951 23.9685 49.6859L25.9683 49.7141C26.0349 44.9823 26.1682 36.717 26.3682 24.9169L24.3685 24.8831ZM24.9684 50.7H66.0684V48.7H24.9684V50.7ZM67.0683 49.6917C67.0016 41.617 66.8348 33.3425 66.5679 24.8685L64.5689 24.9315C64.8353 33.3908 65.0018 41.6497 65.0684 49.7083L67.0683 49.6917ZM66.5673 24.8546C66.4902 23.1587 65.8407 21.7702 64.3912 21.0938L63.5455 22.9062C64.096 23.1631 64.5131 23.7079 64.5694 24.9454L66.5673 24.8546ZM64.4645 21.1317C63.858 20.7852 63.0582 20.5427 62.1288 20.3673C61.1863 20.1895 60.0466 20.0694 58.7196 20.0013L58.6171 21.9987C59.8902 22.064 60.9337 22.1771 61.758 22.3327C62.5952 22.4906 63.1454 22.6815 63.4722 22.8682L64.4645 21.1317ZM58.7396 20.0025L57.3396 19.9025L57.1971 21.8975L58.5971 21.9975L58.7396 20.0025ZM58.2684 20.9V17.2H56.2684V20.9H58.2684ZM57.2684 18.2H84.9684V16.2H57.2684V18.2ZM83.9684 17.2V20.9H85.9684V17.2H83.9684ZM84.8971 19.9025L83.4971 20.0025L83.6396 21.9975L85.0396 21.8975L84.8971 19.9025ZM83.5172 20.0013C80.9131 20.1348 78.912 20.4701 77.6978 21.1176L78.639 22.8823C79.4248 22.4633 81.0236 22.1318 83.6196 21.9987L83.5172 20.0013ZM77.7211 21.1056C76.3385 21.7969 75.745 23.1913 75.6694 24.8546L77.6673 24.9454C77.7251 23.6754 78.1315 23.1365 78.6156 22.8944L77.7211 21.1056ZM75.669 24.865C75.2017 38.2161 74.9684 57.4966 74.9684 82.7H76.9684C76.9684 57.5034 77.2017 38.2506 77.6678 24.935L75.669 24.865ZM74.9684 82.7C74.9684 83.9934 75.4292 85.1177 76.3533 85.9987C77.2474 86.8513 78.5132 87.4185 80.0418 87.774L80.4949 85.826C79.1569 85.5148 78.2726 85.0654 77.7334 84.5513C77.2242 84.0657 76.9684 83.4732 76.9684 82.7H74.9684ZM80.0841 87.7829C81.2113 87.9942 82.8262 88.1639 84.904 88.2979L85.0327 86.3021C82.9772 86.1695 81.4587 86.0058 80.4526 85.8171L80.0841 87.7829ZM83.9684 87.3V91H85.9684V87.3H83.9684ZM84.9684 90H57.2684V92H84.9684V90ZM58.2684 91V87.3H56.2684V91H58.2684ZM57.3349 88.2978C59.3473 88.1636 60.9273 87.9939 62.0526 87.7829L61.6841 85.8171C60.6761 86.0061 59.1894 86.1697 57.2018 86.3022L57.3349 88.2978ZM62.0421 87.7848C63.3256 87.5583 64.477 87.0627 65.4781 86.2926L64.2587 84.7074C63.5264 85.2706 62.6778 85.6417 61.6946 85.8152L62.0421 87.7848ZM65.4496 86.3137C66.6598 85.4493 67.2684 84.2053 67.2684 82.7H65.2684C65.2684 83.5947 64.9436 84.2173 64.2871 84.6863L65.4496 86.3137ZM67.2684 82.7C67.2684 73.4952 67.2017 63.924 67.0683 53.9866L65.0685 54.0134C65.2017 63.9426 65.2684 73.5048 65.2684 82.7H67.2684ZM66.0684 53H24.8684V55H66.0684V53Z" fill="#3C3F42"/>
</g>
<defs>
<filter id="filter0_d" x="0.968262" y="16.2" width="89.0728" height="108.152" filterUnits="userSpaceOnUse" color-interpolation-filters="sRGB">
<feFlood flood-opacity="0" result="BackgroundImageFix"/>
<feColorMatrix in="SourceAlpha" type="matrix" values="0 0 0 0 0 0 0 0 0 0 0 0 0 0 0 0 0 0 127 0"/>
<feOffset dy="4"/>
<feGaussianBlur stdDeviation="2"/>
<feColorMatrix type="matrix" values="0 0 0 0 0 0 0 0 0 0 0 0 0 0 0 0 0 0 0.5 0"/>
<feBlend mode="normal" in2="BackgroundImageFix" result="effect1_dropShadow"/>
<feBlend mode="normal" in="SourceGraphic" in2="effect1_dropShadow" result="shape"/>
</filter>
</defs>
</svg>
